<svg width="61" height="60" viewBox="0 0 61 60" fill="none" xmlns="http://www.w3.org/2000/svg">
<path fill-rule="evenodd" clip-rule="evenodd" d="M6.82153 30C6.82153 16.9227 17.4228 6.32143 30.5001 6.32143C43.5774 6.32143 54.1787 16.9227 54.1787 30C54.1787 43.0773 43.5774 53.6786 30.5001 53.6786C17.4228 53.6786 6.82153 43.0773 6.82153 30ZM30.5001 9.10714C22.8923 9.10714 16.2342 13.1734 12.5807 19.2512L20.2436 27.2229C22.5385 29.6103 26.5661 28.5066 27.3238 25.2829L27.6172 24.0347C28.9298 18.4488 32.2264 13.5296 36.8939 10.1917L36.9786 10.131C34.9389 9.46641 32.7615 9.10714 30.5001 9.10714ZM9.60725 30C9.60725 27.1201 10.1899 24.3764 11.2438 21.8802L18.2352 29.1534C22.0601 33.1323 28.773 31.2931 30.0357 25.9203L30.3291 24.672C31.4874 19.7432 34.3959 15.4028 38.5143 12.4576L40.1236 11.4506C46.4363 14.7324 50.8626 21.142 51.3484 28.6258C51.2102 28.6135 51.0701 28.6071 50.9286 28.6071C47.9585 28.6071 45.8215 31.2603 45.8215 34.1786C45.8215 36.4757 47.1456 38.6084 49.1577 39.4124C45.7151 46.2232 38.6531 50.8929 30.5001 50.8929C18.9613 50.8929 9.60725 41.5387 9.60725 30ZM50.2489 36.8361C50.8406 35.1265 51.2166 33.3161 51.3442 31.4377C51.2088 31.4079 51.0698 31.3929 50.9286 31.3929C49.7962 31.3929 48.6072 32.4812 48.6072 34.1786C48.6072 35.5347 49.3664 36.5021 50.2489 36.8361Z" fill="#F1F1F1"/>
</svg>
