<svg width="25" height="24" viewBox="0 0 25 24" fill="none" xmlns="http://www.w3.org/2000/svg">
<path d="M17.1666 2H7.16663C4.4052 2 2.16663 4.23858 2.16663 7V17C2.16663 19.7614 4.4052 22 7.16663 22H17.1666C19.928 22 22.1666 19.7614 22.1666 17V7C22.1666 4.23858 19.928 2 17.1666 2Z" stroke="#016064" stroke-width="1.5" stroke-linecap="round" stroke-linejoin="round"/>
<path d="M16.1663 11.3698C16.2897 12.2021 16.1476 13.052 15.7601 13.7988C15.3726 14.5456 14.7595 15.1512 14.008 15.5295C13.2564 15.9077 12.4048 16.0394 11.5741 15.9057C10.7435 15.7721 9.97609 15.3799 9.38117 14.785C8.78625 14.1901 8.39407 13.4227 8.2604 12.592C8.12674 11.7614 8.2584 10.9097 8.63666 10.1582C9.01492 9.40667 9.62052 8.79355 10.3673 8.40605C11.1141 8.01856 11.9641 7.8764 12.7963 7.99981C13.6453 8.1257 14.4312 8.52128 15.038 9.12812C15.6449 9.73496 16.0404 10.5209 16.1663 11.3698Z" stroke="#016064" stroke-width="1.5" stroke-linecap="round" stroke-linejoin="round"/>
<path d="M17.6666 6.5H17.6766" stroke="#016064" stroke-width="1.5" stroke-linecap="round" stroke-linejoin="round"/>
</svg>
