<svg width="60" height="60" viewBox="0 0 60 60" fill="none" xmlns="http://www.w3.org/2000/svg">
<g clip-path="url(#clip0_230_804)">
<path fill-rule="evenodd" clip-rule="evenodd" d="M26.2394 53.6925C24.1875 53.708 22.1931 53.0143 20.5937 51.7288L21.1926 49.9025L22.4101 50.3738L22.7931 49.225C23.9247 50.0818 25.3383 50.4793 26.7506 50.3377C28.1629 50.1961 29.4695 49.5259 30.4084 48.4615C31.3474 47.3971 31.8494 46.0171 31.8137 44.5982C31.778 43.1792 31.2073 41.8262 30.216 40.8104C27.2017 37.7273 23.7062 40.5944 19.6216 36.5098C18.3688 35.2574 17.5156 33.6616 17.1699 31.9243C16.8242 30.1869 17.0015 28.3861 17.6794 26.7496C18.3574 25.113 19.5055 23.7143 20.9785 22.7304C22.4515 21.7465 24.1833 21.2215 25.9547 21.222C26.395 21.2252 26.8345 21.258 27.2704 21.3202L26.2002 24.5604H25.9547C24.8465 24.568 23.7654 24.9032 22.8474 25.5239C21.9293 26.1446 21.2155 27.023 20.7956 28.0486C20.3757 29.0741 20.2686 30.201 20.4878 31.2873C20.7069 32.3736 21.2425 33.3707 22.0272 34.1533C25.0416 37.1578 28.537 34.3202 32.6216 38.4048C33.8774 39.6601 34.7317 41.2604 35.0759 43.0023C35.42 44.7443 35.2386 46.5492 34.5545 48.1878C33.8705 49.8263 32.7147 51.2245 31.2341 52.2047C29.7536 53.1849 28.015 53.7028 26.2394 53.6925Z" fill="#F1F1F1"/>
<path fill-rule="evenodd" clip-rule="evenodd" d="M19.2388 50.6684L20.6527 51.7387L22.0469 52.6518L25.778 41.1934C24.7074 40.9607 23.6212 40.8065 22.528 40.7319L19.2388 50.6684ZM27.9382 34.605L35.5477 11.4819L33.8392 6.3074L24.7176 34.0748C25.8072 34.1345 26.887 34.3123 27.9382 34.605Z" fill="#F1F1F1"/>
<path fill-rule="evenodd" clip-rule="evenodd" d="M24.9334 33.4758C26.1149 30.9806 27.8754 28.8038 30.0683 27.1267C32.2613 25.4495 34.8232 24.3206 37.5407 23.8338L38.4047 26.7794C36.2012 27.1239 34.1092 27.9802 32.2966 29.2796C30.484 30.5789 29.0013 32.2852 27.9674 34.2613L24.9334 33.4758Z" fill="#F1F1F1"/>
<path fill-rule="evenodd" clip-rule="evenodd" d="M39.7697 34.605L32.17 11.4819L33.8686 6.3074L43 34.0748C41.9073 34.1344 40.8242 34.3122 39.7697 34.605Z" fill="#F1F1F1"/>
</g>
<defs>
<clipPath id="clip0_230_804">
<rect width="26" height="47.3852" fill="white" transform="translate(17 6.3074)"/>
</clipPath>
</defs>
</svg>
