<svg width="32" height="32" viewBox="0 0 32 32" fill="none" xmlns="http://www.w3.org/2000/svg">
<circle cx="16.0001" cy="15.9999" r="13.1247" stroke="#3A3A3A" stroke-width="1.74996"/>
<path d="M20.3748 15.9999C20.3748 19.7886 19.7974 23.1797 18.8928 25.5919C18.4393 26.8012 17.9204 27.7191 17.3886 28.3189C16.8559 28.9197 16.3846 29.1246 15.9999 29.1246C15.6151 29.1246 15.1438 28.9197 14.6111 28.3189C14.0793 27.7191 13.5604 26.8012 13.1069 25.5919C12.2024 23.1797 11.625 19.7886 11.625 15.9999C11.625 12.2111 12.2024 8.82005 13.1069 6.40787C13.5604 5.19855 14.0793 4.28069 14.6111 3.68087C15.1438 3.08004 15.6151 2.87522 15.9999 2.87522C16.3846 2.87522 16.8559 3.08004 17.3886 3.68087C17.9204 4.28069 18.4393 5.19855 18.8928 6.40787C19.7974 8.82005 20.3748 12.2111 20.3748 15.9999Z" stroke="#3A3A3A" stroke-width="1.74996"/>
<path d="M2.87524 16H29.1246" stroke="#3A3A3A" stroke-width="1.74996" stroke-linecap="round"/>
</svg>
