<svg width="24" height="24" viewBox="0 0 24 24" fill="none" xmlns="http://www.w3.org/2000/svg">
<path d="M9.74661 11.5789L9.75657 11.5813L9.75653 11.5814L9.7564 11.582L9.75587 11.5843L9.75375 11.5932L9.74549 11.6281L9.71397 11.7612L9.60009 12.2423L9.24229 13.7547C8.97388 14.8898 8.68297 16.1216 8.59289 16.5087C8.3937 17.3637 8.47137 18.5648 8.55901 19.3487L8.64481 20.1018C9.54084 19.3003 10.1564 18.1602 10.4573 16.9907L10.4573 16.9906C10.5182 16.7594 10.6728 16.1702 10.8121 15.6389L10.9962 14.9372L11.0541 14.7163L11.0701 14.6554L11.0742 14.6395L11.0753 14.6354L11.0756 14.6344L11.0757 14.6341L11.0757 14.6341L11.0856 14.6366L11.0757 14.634L11.0824 14.6083L11.0947 14.6319C11.2541 14.9387 11.5699 15.2222 11.971 15.4291C12.3719 15.6359 12.8572 15.7657 13.3545 15.7657C16.3366 15.7657 18.486 13.0262 18.486 9.60694C18.486 6.33643 15.8182 3.89123 12.3856 3.89123C10.2481 3.89123 8.6136 4.60854 7.51352 5.7153C6.41336 6.82214 5.84704 8.31912 5.84704 9.8796C5.84704 10.6034 6.04018 11.4174 6.38766 12.1221C6.7352 12.8269 7.23652 13.4212 7.85201 13.7071L7.85228 13.7072C7.9441 13.7531 8.01237 13.7636 8.06226 13.7428C8.11178 13.7222 8.14712 13.6692 8.16878 13.5778C8.18847 13.4828 8.27162 13.1514 8.34772 12.848C8.38509 12.6991 8.42075 12.5569 8.44637 12.4529L8.44638 12.4528C8.45829 12.4052 8.46172 12.3593 8.45237 12.3137C8.44303 12.2682 8.42079 12.2223 8.38035 12.1747L8.38024 12.1746C7.96957 11.6759 7.63782 10.7581 7.63782 9.90882C7.63782 7.71743 9.29743 5.59437 12.1227 5.59437C13.3423 5.59437 14.3796 6.00907 15.1121 6.72201C15.8446 7.43497 16.2716 8.44558 16.2716 9.63615C16.2716 10.9792 15.9328 12.1171 15.3726 12.9195C14.8124 13.722 14.0305 14.1892 13.1452 14.1892C12.1655 14.1892 11.4293 13.3803 11.6696 12.3847C11.7712 11.9612 11.906 11.5255 12.0371 11.1022C12.0884 10.9364 12.1392 10.7725 12.1871 10.6119C12.3576 10.0409 12.4922 9.51273 12.4922 9.09083C12.4922 8.71273 12.3916 8.3671 12.186 8.11621C11.9805 7.8656 11.6695 7.70853 11.2463 7.70853C10.2563 7.70853 9.46471 8.72841 9.46471 10.1084C9.46471 10.5455 9.53756 10.9122 9.6104 11.1695C9.64681 11.2982 9.68322 11.3995 9.71049 11.4686C9.72413 11.5032 9.73548 11.5297 9.74342 11.5475L9.7526 11.5677L9.75501 11.5727L9.75561 11.574L9.75576 11.5743L9.75579 11.5744L9.7558 11.5744L9.74661 11.5789ZM9.74661 11.5789L9.75953 11.582L9.7558 11.5744L9.74661 11.5789Z" fill="#016064" stroke="#016064" stroke-width="0.0204904"/>
</svg>
