<svg width="80" height="102" viewBox="0 0 80 102" fill="none" xmlns="http://www.w3.org/2000/svg">
<g filter="url(#filter0_d_143_1647)">
<circle cx="40" cy="40" r="40" fill="#016064"/>
</g>
<g clip-path="url(#clip0_143_1647)">
<path d="M50.5577 43.283C50.472 43.2419 47.2642 41.6623 46.6942 41.4572C46.4615 41.3736 46.2122 41.292 45.9471 41.292C45.514 41.292 45.1501 41.5079 44.8667 41.9319C44.5462 42.4082 43.5762 43.542 43.2765 43.8807C43.2374 43.9254 43.1839 43.9789 43.1519 43.9789C43.1232 43.9789 42.6268 43.7744 42.4765 43.7092C39.0355 42.2144 36.4237 38.62 36.0655 38.0139C36.0144 37.9267 36.0122 37.8872 36.0118 37.8872C36.0244 37.841 36.1401 37.725 36.1998 37.6652C36.3745 37.4923 36.5638 37.2644 36.747 37.044C36.8337 36.9396 36.9205 36.835 37.0058 36.7364C37.2715 36.4273 37.3898 36.1873 37.5269 35.9093L37.5988 35.7649C37.9337 35.0996 37.6477 34.5382 37.5552 34.3569C37.4794 34.2052 36.1249 30.9363 35.9809 30.5929C35.6347 29.7642 35.1771 29.3783 34.5412 29.3783C34.4822 29.3783 34.5412 29.3783 34.2938 29.3887C33.9925 29.4014 32.3518 29.6174 31.6264 30.0747C30.8571 30.5597 29.5557 32.1057 29.5557 34.8246C29.5557 37.2716 31.1085 39.582 31.7752 40.4607C31.7918 40.4829 31.8222 40.5279 31.8664 40.5924C34.4197 44.3213 37.6027 47.0847 40.8294 48.3737C43.9358 49.6146 45.4068 49.758 46.2431 49.758H46.2432C46.5947 49.758 46.876 49.7304 47.1241 49.706L47.2815 49.691C48.3547 49.5959 50.713 48.3739 51.2494 46.8832C51.672 45.709 51.7834 44.4262 51.5022 43.9606C51.3097 43.644 50.9778 43.4847 50.5577 43.283Z" fill="#EEEADF"/>
<path d="M40.3905 18C28.474 18 18.7791 27.622 18.7791 39.449C18.7791 43.2743 19.8028 47.0187 21.7421 50.2959L18.0303 61.2451C17.9611 61.4493 18.0125 61.675 18.1635 61.8287C18.2725 61.94 18.4204 62 18.5714 62C18.6293 62 18.6875 61.9913 18.7444 61.9731L30.1615 58.3451C33.2858 60.0144 36.817 60.8956 40.3907 60.8956C52.3061 60.8957 62 51.2747 62 39.449C62 27.622 52.3061 18 40.3905 18ZM40.3905 56.4277C37.0278 56.4277 33.7708 55.4567 30.9711 53.6196C30.877 53.5577 30.7677 53.526 30.6577 53.526C30.5995 53.526 30.5413 53.5349 30.4845 53.5529L24.7653 55.3709L26.6115 49.9239C26.6713 49.7476 26.6414 49.5531 26.5314 49.4029C24.3994 46.4897 23.2724 43.0479 23.2724 39.449C23.2724 30.0857 30.9515 22.468 40.3904 22.468C49.8281 22.468 57.5064 30.0857 57.5064 39.449C57.5065 48.8111 49.8284 56.4277 40.3905 56.4277Z" fill="#EEEADF"/>
</g>
<defs>
<filter id="filter0_d_143_1647" x="0" y="0" width="80" height="102" filterUnits="userSpaceOnUse" color-interpolation-filters="sRGB">
<feFlood flood-opacity="0" result="BackgroundImageFix"/>
<feColorMatrix in="SourceAlpha" type="matrix" values="0 0 0 0 0 0 0 0 0 0 0 0 0 0 0 0 0 0 127 0" result="hardAlpha"/>
<feMorphology radius="15" operator="erode" in="SourceAlpha" result="effect1_dropShadow_143_1647"/>
<feOffset dy="23"/>
<feGaussianBlur stdDeviation="7"/>
<feComposite in2="hardAlpha" operator="out"/>
<feColorMatrix type="matrix" values="0 0 0 0 0.00392157 0 0 0 0 0.376471 0 0 0 0 0.392157 0 0 0 0.22 0"/>
<feBlend mode="normal" in2="BackgroundImageFix" result="effect1_dropShadow_143_1647"/>
<feBlend mode="normal" in="SourceGraphic" in2="effect1_dropShadow_143_1647" result="shape"/>
</filter>
<clipPath id="clip0_143_1647">
<rect width="44" height="44" fill="white" transform="translate(18 18)"/>
</clipPath>
</defs>
</svg>
