<svg width="25" height="24" viewBox="0 0 25 24" fill="none" xmlns="http://www.w3.org/2000/svg">
<path d="M12.5 1.49988C10.6618 1.50035 8.85582 1.9833 7.2627 2.90044C5.66958 3.81758 4.34508 5.1368 3.42158 6.72624C2.49808 8.31568 2.00792 10.1197 2.0001 11.9579C1.99227 13.7961 2.46706 15.6042 3.377 17.2015L2.43154 20.5107C2.36982 20.7268 2.367 20.9554 2.42337 21.1729C2.47974 21.3904 2.59325 21.5889 2.75214 21.7478C2.91103 21.9067 3.10951 22.0202 3.32703 22.0765C3.54454 22.1329 3.77316 22.13 3.98921 22.0683L7.29846 21.1229C8.69558 21.9194 10.257 22.3844 11.8623 22.482C13.4676 22.5795 15.0738 22.3071 16.5571 21.6856C18.0404 21.0641 19.3611 20.1102 20.4174 18.8975C21.4738 17.6848 22.2374 16.2457 22.6495 14.6911C23.0615 13.1366 23.111 11.5082 22.7941 9.93145C22.4772 8.35474 21.8024 6.87189 20.8217 5.59727C19.841 4.32265 18.5806 3.29032 17.1378 2.57991C15.695 1.8695 14.1082 1.49999 12.5 1.49988ZM12.5 21.6599C10.7651 21.6611 9.06192 21.1943 7.56998 20.3088C7.52079 20.2795 7.46614 20.2606 7.40937 20.2533C7.35261 20.2459 7.29493 20.2502 7.2399 20.266L3.75839 21.2607C3.68637 21.2813 3.61016 21.2822 3.53766 21.2634C3.46516 21.2446 3.399 21.2068 3.34604 21.1538C3.29309 21.1008 3.25526 21.0347 3.23648 20.9622C3.2177 20.8897 3.21865 20.8135 3.23924 20.7414L4.23387 17.26C4.24958 17.205 4.25389 17.1473 4.24652 17.0906C4.23915 17.0338 4.22026 16.9792 4.19101 16.93C3.10295 15.0969 2.65172 12.9554 2.90759 10.8391C3.16346 8.72282 4.11207 6.75059 5.60565 5.22963C7.09923 3.70867 9.05391 2.72439 11.1652 2.43011C13.2765 2.13584 15.4258 2.54811 17.2784 3.60268C19.1309 4.65725 20.5827 6.29492 21.4075 8.26058C22.2323 10.2262 22.3839 12.4095 21.8385 14.4702C21.2932 16.531 20.0816 18.3535 18.3925 19.654C16.7035 20.9544 14.6317 21.6596 12.5 21.6599ZM17.8037 13.9469L15.6554 12.7193C15.4611 12.6084 15.2407 12.5512 15.0169 12.5535C14.7931 12.5559 14.574 12.6178 14.3821 12.7328L12.9324 13.6027C12.0548 13.158 11.3418 12.4451 10.8972 11.5675L11.767 10.1178C11.882 9.92582 11.9439 9.70672 11.9463 9.48295C11.9487 9.25918 11.8915 9.0388 11.7805 8.84444L10.553 6.69614C10.4528 6.52125 10.3082 6.37588 10.1338 6.27471C9.95948 6.17353 9.76153 6.12013 9.55995 6.11988C8.67106 6.1201 7.81845 6.47245 7.18873 7.09982C6.55902 7.72719 6.20349 8.57848 6.19995 9.46737C6.19832 10.6267 6.42525 11.7749 6.86776 12.8464C7.31027 13.918 7.95967 14.8917 8.77884 15.7121C9.598 16.5324 10.5708 17.1832 11.6417 17.6272C12.7126 18.0713 13.8605 18.2999 15.0198 18.2999H15.0325C15.9213 18.2963 16.7726 17.9408 17.4 17.3111C18.0274 16.6814 18.3797 15.8288 18.38 14.9399C18.3797 14.7383 18.3263 14.5404 18.2252 14.366C18.124 14.1917 17.9786 14.0471 17.8037 13.9469ZM15.0313 17.4599H15.0199C13.971 17.4599 12.9324 17.2531 11.9635 16.8514C10.9946 16.4496 10.1144 15.8608 9.37322 15.1186C8.63207 14.3764 8.04451 13.4954 7.64414 12.5259C7.24378 11.5564 7.03847 10.5175 7.03995 9.4686C7.04285 8.80219 7.30964 8.16406 7.78193 7.69389C8.25421 7.22371 8.89353 6.95979 9.55995 6.95988C9.61348 6.95995 9.66605 6.97412 9.71235 7.00098C9.75865 7.02784 9.79705 7.06643 9.82368 7.11286L11.0512 9.26127C11.0882 9.32605 11.1073 9.39951 11.1065 9.47409C11.1057 9.54867 11.085 9.6217 11.0467 9.68568L10.0609 11.3288C10.026 11.3868 10.0057 11.4525 10.0017 11.5201C9.99772 11.5877 10.0101 11.6553 10.0379 11.7171C10.5861 12.9371 11.5627 13.9138 12.7828 14.462C12.8446 14.4898 12.9122 14.5022 12.9798 14.4982C13.0474 14.4942 13.1131 14.4739 13.1712 14.439L14.8142 13.4532C14.8781 13.4148 14.9512 13.3942 15.0258 13.3934C15.1004 13.3926 15.1739 13.4116 15.2387 13.4486L17.387 14.6763C17.4334 14.7029 17.472 14.7412 17.4989 14.7875C17.5257 14.8338 17.5399 14.8864 17.54 14.9399C17.54 15.6063 17.2761 16.2456 16.806 16.7179C16.3358 17.1902 15.6977 17.457 15.0313 17.4599Z" fill="#016064" stroke="#016064" stroke-width="0.56"/>
</svg>
