<svg width="60" height="60" viewBox="0 0 60 60" fill="none" xmlns="http://www.w3.org/2000/svg">
<path d="M20.0002 30L20.0002 20C20.0002 14.4772 24.4774 10 30.0002 10V10C35.5231 10 40.0002 14.4772 40.0002 20L40.0002 30" stroke="#F1F1F1" stroke-width="1.98361" stroke-linecap="round"/>
<path d="M9.39371 29.7754C9.68148 26.3222 9.82537 24.5956 10.9641 23.5478C12.1029 22.4999 13.8355 22.4999 17.3007 22.4999H42.6993C46.1645 22.4999 47.8971 22.4999 49.0359 23.5478C50.1746 24.5956 50.3185 26.3222 50.6063 29.7754L52.1419 48.2033C52.3095 50.2137 52.3933 51.219 51.8039 51.8595C51.2146 52.4999 50.2059 52.4999 48.1884 52.4999H11.8116C9.79413 52.4999 8.78542 52.4999 8.19608 51.8595C7.60675 51.219 7.69052 50.2137 7.85806 48.2033L9.39371 29.7754Z" stroke="#F1F1F1" stroke-width="1.98361"/>
</svg>
