<svg width="32" height="32" viewBox="0 0 32 32" fill="none" xmlns="http://www.w3.org/2000/svg">
<circle cx="16.0001" cy="16" r="13.1247" stroke="#F1F1F1" stroke-width="1.74996"/>
<path d="M20.3748 16C20.3748 19.7887 19.7974 23.1798 18.8929 25.592C18.4394 26.8013 17.9205 27.7192 17.3887 28.319C16.856 28.9198 16.3847 29.1247 15.9999 29.1247C15.6152 29.1247 15.1439 28.9198 14.6112 28.319C14.0794 27.7192 13.5605 26.8013 13.107 25.592C12.2024 23.1798 11.625 19.7887 11.625 16C11.625 12.2112 12.2024 8.82014 13.107 6.40796C13.5605 5.19865 14.0794 4.28078 14.6112 3.68096C15.1439 3.08013 15.6152 2.87531 15.9999 2.87531C16.3847 2.87531 16.856 3.08013 17.3887 3.68096C17.9205 4.28078 18.4394 5.19865 18.8929 6.40796C19.7974 8.82014 20.3748 12.2112 20.3748 16Z" stroke="#F1F1F1" stroke-width="1.74996"/>
<path d="M2.87524 16H29.1246" stroke="#F1F1F1" stroke-width="1.74996" stroke-linecap="round"/>
</svg>
