<svg width="81" height="80" viewBox="0 0 81 80" fill="none" xmlns="http://www.w3.org/2000/svg">
<g clip-path="url(#clip0_143_1620)">
<path d="M65.5184 29.6697C64.4998 29.6697 63.4548 29.6135 62.3896 29.5002C61.6661 29.423 61.1427 28.774 61.22 28.0504C61.2972 27.326 61.9585 26.8097 62.6689 26.8799C69.001 27.5596 74.4059 26.0106 77.8894 22.5279C78.404 22.0133 79.2373 22.0133 79.7519 22.5279C80.2665 23.0425 80.2665 23.8767 79.7519 24.3904C76.3009 27.8415 71.3228 29.6697 65.5184 29.6697Z" fill="#BF9553"/>
<path d="M24.1254 79.4708C23.7882 79.4708 23.451 79.3426 23.1937 79.0853C22.6791 78.5707 22.6791 77.7374 23.1937 77.2228C28.1832 72.2324 29.0982 63.7919 25.7034 54.0632C22.2207 44.0771 23.0066 35.0307 27.86 29.2421C32.2428 24.0137 39.3687 21.8966 47.9146 23.2796C48.633 23.3955 49.1212 24.0725 49.0044 24.7909C48.8876 25.5092 48.2079 25.9904 47.494 25.8806C39.8965 24.6504 33.6416 26.447 29.878 30.9342C25.6357 35.994 25.0211 44.107 28.192 53.1947C31.9319 63.9157 30.7895 73.352 25.0571 79.0844C24.7998 79.3426 24.4626 79.4708 24.1254 79.4708Z" fill="#BF9553"/>
<path d="M38.2685 57.0426C36.7476 57.0426 35.1643 56.9162 33.5275 56.6615C32.8092 56.5491 32.3165 55.8756 32.4289 55.1573C32.5405 54.4381 33.2166 53.9525 33.9332 54.0579C41.4631 55.2346 47.6635 53.416 51.3912 48.9445C55.6097 43.883 56.2147 35.7815 53.0526 26.7157C49.3127 15.9938 50.4551 6.55746 56.1875 0.825938C56.7021 0.311357 57.5354 0.311357 58.05 0.825938C58.5646 1.34052 58.5646 2.17474 58.05 2.68844C53.0605 7.67795 52.1455 16.1185 55.5394 25.8481C59.0151 35.8096 58.2406 44.8428 53.4153 50.6323C49.9098 54.8359 44.6322 57.0426 38.2685 57.0426Z" fill="#BF9553"/>
<path d="M2.42334 57.7688C2.08614 57.7688 1.74894 57.6406 1.49165 57.3833C0.977068 56.8688 0.977068 56.0354 1.49165 55.5208C5.92355 51.0889 12.7422 49.3626 20.6919 50.6595C21.4093 50.7772 21.8966 51.4534 21.7798 52.1717C21.6622 52.89 20.9834 53.3765 20.2677 53.2597C13.1786 52.1041 7.17136 53.567 3.35503 57.3833C3.09774 57.6406 2.76054 57.7688 2.42334 57.7688Z" fill="#BF9553"/>
<path d="M55.298 45.8896C54.9608 45.8896 54.6236 45.7613 54.3663 45.5041L35.0765 26.2134C34.5619 25.6997 34.5619 24.8646 35.0765 24.3509C35.5911 23.8363 36.4244 23.8363 36.939 24.3509L56.2296 43.6416C56.7442 44.1561 56.7442 44.9895 56.2296 45.5041C55.9715 45.7605 55.6352 45.8896 55.298 45.8896Z" fill="#BF9553"/>
<path d="M45.239 55.9485C44.9018 55.9485 44.5646 55.8203 44.3073 55.563L25.0167 36.2723C24.5021 35.7586 24.5021 34.9235 25.0167 34.4098C25.5313 33.8952 26.3646 33.8952 26.8792 34.4098L46.1698 53.7005C46.6844 54.2151 46.6844 55.0484 46.1698 55.563C45.9125 55.8194 45.5762 55.9485 45.239 55.9485Z" fill="#BF9553"/>
<path d="M73.2099 28.3552C72.8727 28.3552 72.5355 28.227 72.2782 27.9697L52.6047 8.29528C52.0901 7.78158 52.0901 6.94648 52.6047 6.43278C53.1193 5.9182 53.9526 5.9182 54.4672 6.43278L74.1407 26.1072C74.6553 26.6209 74.6553 27.456 74.1407 27.9697C73.8843 28.227 73.5471 28.3552 73.2099 28.3552Z" fill="#BF9553"/>
<path d="M26.6886 74.8773C26.3514 74.8773 26.0142 74.7491 25.7569 74.4918L6.08247 54.8174C5.56789 54.3029 5.56789 53.4695 6.08247 52.9549C6.59705 52.4404 7.43039 52.4404 7.94497 52.9549L27.6194 72.6284C28.1339 73.143 28.1339 73.9764 27.6194 74.491C27.3621 74.7482 27.0258 74.8773 26.6886 74.8773Z" fill="#BF9553"/>
</g>
<defs>
<clipPath id="clip0_143_1620">
<rect width="80" height="80" fill="white" transform="translate(0.666626)"/>
</clipPath>
</defs>
</svg>
