<svg width="60" height="60" viewBox="0 0 60 60" fill="none" xmlns="http://www.w3.org/2000/svg">
<circle cx="30" cy="20" r="6.73077" stroke="#F1F1F1" stroke-width="1.53846" stroke-linecap="round"/>
<path d="M34.0035 16.0096C34.5455 15.0708 35.3537 14.3139 36.3259 13.8344C37.2981 13.355 38.3907 13.1746 39.4654 13.3161C40.5401 13.4576 41.5487 13.9146 42.3637 14.6293C43.1787 15.3441 43.7635 16.2844 44.044 17.3315C44.3246 18.3785 44.2883 19.4853 43.9399 20.5117C43.5915 21.5382 42.9465 22.4383 42.0865 23.0982C41.2265 23.7581 40.1901 24.1481 39.1085 24.219C38.0268 24.2899 36.9484 24.0385 36.0096 23.4965" stroke="#F1F1F1" stroke-width="1.53846"/>
<path d="M25.9965 16.0096C25.4545 15.0708 24.6463 14.3139 23.6741 13.8344C22.7019 13.355 21.6093 13.1746 20.5346 13.3161C19.4599 13.4576 18.4513 13.9146 17.6363 14.6293C16.8213 15.3441 16.2365 16.2844 15.956 17.3315C15.6754 18.3785 15.7117 19.4853 16.0601 20.5117C16.4085 21.5382 17.0535 22.4383 17.9135 23.0982C18.7735 23.7581 19.8099 24.1481 20.8915 24.219C21.9732 24.2899 23.0516 24.0385 23.9904 23.4965" stroke="#F1F1F1" stroke-width="1.53846"/>
<path d="M30 31.25C41.0305 31.25 43.2121 40.9032 43.6436 44.7218C43.739 45.5661 43.0612 46.25 42.2115 46.25H17.7885C16.9388 46.25 16.261 45.5661 16.3564 44.7218C16.7879 40.9032 18.9695 31.25 30 31.25Z" stroke="#F1F1F1" stroke-width="1.53846" stroke-linecap="round"/>
<path d="M48.477 39.5774L47.7233 39.7313L47.7233 39.7313L48.477 39.5774ZM32.7178 31.4648L32.1497 30.9461L31.1952 31.9915L32.5917 32.2236L32.7178 31.4648ZM42.9533 41.25L42.2144 41.4638L42.3751 42.0192H42.9533V41.25ZM38.75 29.5192C41.7823 29.5192 43.8283 31.1678 45.2385 33.3095C46.6616 35.4707 47.3832 38.0662 47.7233 39.7313L49.2307 39.4234C48.8751 37.6825 48.1043 34.8643 46.5234 32.4634C44.9295 30.0428 42.4598 27.9808 38.75 27.9808V29.5192ZM33.2858 31.9834C34.6114 30.5316 36.3691 29.5192 38.75 29.5192V27.9808C35.8646 27.9808 33.7143 29.2325 32.1497 30.9461L33.2858 31.9834ZM32.5917 32.2236C38.6071 33.2232 41.1356 37.7351 42.2144 41.4638L43.6922 41.0362C42.538 37.0467 39.7045 31.8461 32.8439 30.706L32.5917 32.2236ZM47.05 40.4808H42.9533V42.0192H47.05V40.4808ZM47.7233 39.7313C47.7986 40.1002 47.5216 40.4808 47.05 40.4808V42.0192C48.3988 42.0192 49.5196 40.8381 49.2307 39.4234L47.7233 39.7313Z" fill="#F1F1F1"/>
<path d="M27.2822 31.4648L27.4083 32.2236L28.8047 31.9915L27.8502 30.9461L27.2822 31.4648ZM11.5229 39.5774L10.7692 39.4234L10.7692 39.4234L11.5229 39.5774ZM17.0467 41.25V42.0192H17.6249L17.7856 41.4638L17.0467 41.25ZM21.2499 29.5192C23.6309 29.5192 25.3885 30.5316 26.7141 31.9834L27.8502 30.9461C26.2857 29.2325 24.1354 27.9808 21.2499 27.9808V29.5192ZM12.2766 39.7313C12.6167 38.0662 13.3384 35.4707 14.7615 33.3095C16.1717 31.1678 18.2176 29.5192 21.2499 29.5192V27.9808C17.5401 27.9808 15.0704 30.0428 13.4766 32.4634C11.8956 34.8643 11.1248 37.6825 10.7692 39.4234L12.2766 39.7313ZM12.9499 40.4808C12.4783 40.4808 12.2013 40.1002 12.2766 39.7313L10.7692 39.4234C10.4803 40.8381 11.6011 42.0192 12.9499 42.0192V40.4808ZM17.0467 40.4808H12.9499V42.0192H17.0467V40.4808ZM17.7856 41.4638C18.8643 37.7351 21.3929 33.2233 27.4083 32.2236L27.1561 30.706C20.2954 31.8461 17.4619 37.0467 16.3077 41.0362L17.7856 41.4638Z" fill="#F1F1F1"/>
</svg>
