<svg width="60" height="60" viewBox="0 0 60 60" fill="none" xmlns="http://www.w3.org/2000/svg">
<g clip-path="url(#clip0_198_703)">
<path fill-rule="evenodd" clip-rule="evenodd" d="M26.2396 53.6925C24.1876 53.7079 22.1933 53.0142 20.5938 51.7287L21.1927 49.9024L22.4103 50.3737L22.7932 49.2249C23.9248 50.0818 25.3384 50.4792 26.7507 50.3376C28.163 50.196 29.4696 49.5258 30.4086 48.4614C31.3475 47.397 31.8495 46.017 31.8138 44.5981C31.7781 43.1792 31.2074 41.8262 30.2161 40.8103C27.2018 37.7272 23.7063 40.5943 19.6217 36.5097C18.3689 35.2573 17.5157 33.6616 17.17 31.9242C16.8243 30.1869 17.0016 28.386 17.6796 26.7495C18.3575 25.1129 19.5056 23.7142 20.9786 22.7303C22.4517 21.7464 24.1834 21.2215 25.9548 21.2219C26.3951 21.2251 26.8347 21.2579 27.2705 21.3201L26.2003 24.5603H25.9548C24.8467 24.5679 23.7655 24.9031 22.8475 25.5238C21.9295 26.1445 21.2156 27.023 20.7957 28.0485C20.3758 29.0741 20.2687 30.2009 20.4879 31.2872C20.707 32.3735 21.2427 33.3707 22.0273 34.1532C25.0417 37.1577 28.5371 34.3201 32.6217 38.4047C33.8776 39.66 34.7318 41.2603 35.076 43.0022C35.4202 44.7442 35.2387 46.5491 34.5546 48.1877C33.8706 49.8263 32.7148 51.2245 31.2343 52.2046C29.7537 53.1848 28.0152 53.7027 26.2396 53.6925Z" fill="#3A3A3A"/>
<path fill-rule="evenodd" clip-rule="evenodd" d="M19.2388 50.6684L20.6527 51.7386L22.0469 52.6518L25.778 41.1933C24.7074 40.9607 23.6212 40.8064 22.528 40.7318L19.2388 50.6684ZM27.9382 34.605L35.5477 11.4818L33.8392 6.30737L24.7176 34.0747C25.8072 34.1345 26.887 34.3122 27.9382 34.605Z" fill="#3A3A3A"/>
<path fill-rule="evenodd" clip-rule="evenodd" d="M24.9335 33.4757C26.115 30.9806 27.8755 28.8038 30.0684 27.1266C32.2613 25.4495 34.8232 24.3205 37.5407 23.8337L38.4048 26.7794C36.2013 27.1239 34.1093 27.9802 32.2967 29.2795C30.4841 30.5789 29.0013 32.2851 27.9675 34.2612L24.9335 33.4757Z" fill="#3A3A3A"/>
<path fill-rule="evenodd" clip-rule="evenodd" d="M39.7697 34.605L32.17 11.4818L33.8687 6.30737L43.0001 34.0747C41.9073 34.1344 40.8242 34.3121 39.7697 34.605Z" fill="#3A3A3A"/>
</g>
<defs>
<clipPath id="clip0_198_703">
<rect width="26" height="47.3852" fill="white" transform="translate(17 6.30737)"/>
</clipPath>
</defs>
</svg>
