<svg width="30" height="30" viewBox="0 0 30 30" fill="none" xmlns="http://www.w3.org/2000/svg">
<path d="M15 1C12.549 1.00064 10.1411 1.64456 8.01693 2.86742C5.89277 4.09028 4.12677 5.84923 2.89544 7.96849C1.6641 10.0877 1.01056 12.4931 1.00013 14.944C0.989696 17.395 1.62274 19.8058 2.836 21.9355L1.57538 26.3478C1.49309 26.6359 1.48933 26.9407 1.56449 27.2307C1.63965 27.5207 1.791 27.7854 2.00285 27.9972C2.21471 28.209 2.47935 28.3604 2.76937 28.4355C3.05938 28.5107 3.36422 28.5069 3.65228 28.4246L8.06461 27.164C9.92745 28.2261 12.0093 28.846 14.1497 28.9761C16.2901 29.1062 18.4317 28.7429 20.4095 27.9143C22.3872 27.0856 24.1482 25.8138 25.5566 24.1969C26.965 22.5799 27.9832 20.6611 28.5326 18.5883C29.082 16.5156 29.148 14.3444 28.7255 12.2421C28.303 10.1398 27.4032 8.16268 26.0956 6.46319C24.788 4.76369 23.1075 3.38726 21.1837 2.44004C19.26 1.49283 17.1443 1.00015 15 1ZM15 27.88C12.6868 27.8816 10.4159 27.2593 8.42664 26.0786C8.36106 26.0396 8.28818 26.0143 8.2125 26.0045C8.13681 25.9947 8.05991 26.0004 7.98654 26.0215L3.34452 27.3478C3.2485 27.3752 3.14689 27.3764 3.05021 27.3514C2.95354 27.3263 2.86533 27.2759 2.79472 27.2052C2.72411 27.1346 2.67368 27.0464 2.64864 26.9497C2.6236 26.8531 2.62487 26.7514 2.65232 26.6554L3.97849 22.0135C3.99945 21.9402 4.00519 21.8633 3.99536 21.7876C3.98553 21.7119 3.96034 21.639 3.92134 21.5734C2.47061 19.1293 1.86896 16.274 2.21012 13.4523C2.55128 10.6306 3.8161 8.00095 5.80754 5.973C7.79898 3.94505 10.4052 2.63268 13.2203 2.24031C16.0353 1.84795 18.9011 2.39764 21.3711 3.80374C23.8412 5.20984 25.7769 7.3934 26.8767 10.0143C27.9764 12.6351 28.1785 15.5461 27.4514 18.2938C26.7243 21.0415 25.1088 23.4716 22.8567 25.2054C20.6046 26.9393 17.8423 27.8797 15 27.88ZM22.0716 17.596L19.2073 15.9592C18.9481 15.8113 18.6543 15.735 18.3559 15.7382C18.0575 15.7414 17.7654 15.8239 17.5094 15.9773L15.5765 17.1371C14.4063 16.5442 13.4558 15.5936 12.863 14.4235L14.0227 12.4905C14.176 12.2346 14.2585 11.9425 14.2617 11.6441C14.2649 11.3457 14.1886 11.0519 14.0407 10.7928L12.404 7.92835C12.2704 7.69516 12.0776 7.50134 11.8451 7.36644C11.6126 7.23154 11.3487 7.16033 11.0799 7.16C9.89474 7.16029 8.75793 7.6301 7.91831 8.46659C7.07869 9.30309 6.60465 10.4381 6.59994 11.6233C6.59776 13.1691 6.90033 14.7001 7.49034 16.1288C8.08036 17.5574 8.94623 18.8558 10.0384 19.9496C11.1307 21.0434 12.4278 21.9111 13.8557 22.5032C15.2835 23.0952 16.8141 23.4 18.3598 23.4H18.3766C19.5618 23.3953 20.6968 22.9212 21.5333 22.0816C22.3698 21.242 22.8396 20.1052 22.8399 18.92C22.8396 18.6512 22.7684 18.3873 22.6335 18.1548C22.4986 17.9224 22.3048 17.7296 22.0716 17.596ZM18.375 22.28H18.3599C16.9613 22.28 15.5765 22.0043 14.2847 21.4686C12.9928 20.933 11.8192 20.1479 10.831 19.1583C9.84276 18.1687 9.05934 16.994 8.52552 15.7013C7.9917 14.4087 7.71795 13.0235 7.71994 11.625C7.7238 10.7364 8.07952 9.88558 8.70924 9.25868C9.33895 8.63178 10.1914 8.27988 11.0799 8.28C11.1513 8.28009 11.2214 8.299 11.2831 8.33481C11.3449 8.37062 11.3961 8.42207 11.4316 8.48398L13.0683 11.3485C13.1176 11.4349 13.143 11.5328 13.1419 11.6323C13.1409 11.7317 13.1134 11.8291 13.0623 11.9144L11.7478 14.1052C11.7013 14.1826 11.6743 14.2702 11.6689 14.3603C11.6636 14.4505 11.6802 14.5406 11.7172 14.6229C12.4481 16.2497 13.7503 17.5519 15.3771 18.2828C15.4594 18.3198 15.5496 18.3364 15.6397 18.3311C15.7299 18.3257 15.8175 18.2987 15.8949 18.2521L18.0855 16.9377C18.1709 16.8866 18.2683 16.8591 18.3677 16.858C18.4672 16.8569 18.5651 16.8823 18.6516 16.9316L21.516 18.5685C21.5779 18.604 21.6294 18.6552 21.6652 18.7169C21.701 18.7786 21.7199 18.8487 21.7199 18.92C21.7201 19.8086 21.3682 20.661 20.7413 21.2907C20.1144 21.9204 19.2636 22.2761 18.375 22.28Z" fill="#3A3A3A" stroke="#3A3A3A" stroke-width="0.56"/>
</svg>
