<svg width="32" height="32" viewBox="0 0 32 32" fill="none" xmlns="http://www.w3.org/2000/svg">
<path d="M16 1.99989C13.549 2.00053 11.1411 2.64445 9.01693 3.86731C6.89277 5.09017 5.12677 6.84912 3.89544 8.96838C2.6641 11.0876 2.01056 13.493 2.00013 15.9439C1.9897 18.3949 2.62274 20.8057 3.836 22.9354L2.57538 27.3477C2.49309 27.6358 2.48933 27.9406 2.56449 28.2306C2.63965 28.5206 2.791 28.7853 3.00285 28.9971C3.21471 29.2089 3.47935 29.3603 3.76937 29.4354C4.05938 29.5106 4.36422 29.5068 4.65228 29.4245L9.06461 28.1639C10.9274 29.226 13.0093 29.8459 15.1497 29.976C17.2901 30.1061 19.4317 29.7428 21.4095 28.9142C23.3872 28.0855 25.1482 26.8137 26.5566 25.1968C27.965 23.5798 28.9832 21.661 29.5326 19.5882C30.082 17.5155 30.148 15.3443 29.7255 13.242C29.303 11.1397 28.4032 9.16257 27.0956 7.46308C25.788 5.76359 24.1075 4.38715 22.1837 3.43994C20.26 2.49272 18.1443 2.00004 16 1.99989ZM16 28.8799C13.6868 28.8815 11.4159 28.2592 9.42664 27.0785C9.36106 27.0394 9.28818 27.0142 9.2125 27.0044C9.13681 26.9946 9.05991 27.0003 8.98654 27.0213L4.34452 28.3477C4.2485 28.3751 4.14689 28.3763 4.05021 28.3513C3.95354 28.3262 3.86533 28.2758 3.79472 28.2051C3.72411 28.1345 3.67368 28.0463 3.64864 27.9496C3.6236 27.8529 3.62487 27.7513 3.65232 27.6553L4.97849 23.0134C4.99945 22.9401 5.00519 22.8632 4.99536 22.7875C4.98553 22.7118 4.96034 22.6389 4.92134 22.5733C3.47061 20.1292 2.86896 17.2739 3.21012 14.4522C3.55128 11.6305 4.8161 9.00084 6.80754 6.97289C8.79898 4.94494 11.4052 3.63257 14.2203 3.24021C17.0353 2.84785 19.9011 3.39753 22.3711 4.80363C24.8412 6.20973 26.7769 8.39329 27.8767 11.0142C28.9764 13.635 29.1785 16.546 28.4514 19.2937C27.7243 22.0414 26.1088 24.4714 23.8567 26.2053C21.6046 27.9392 18.8423 28.8796 16 28.8799ZM23.0716 18.5959L20.2073 16.9591C19.9481 16.8112 19.6543 16.7349 19.3559 16.7381C19.0575 16.7413 18.7654 16.8238 18.5094 16.9772L16.5765 18.137C15.4064 17.5441 14.4558 16.5935 13.863 15.4234L15.0227 13.4904C15.176 13.2345 15.2585 12.9423 15.2617 12.644C15.2649 12.3456 15.1886 12.0518 15.0407 11.7926L13.404 8.92825C13.2704 8.69505 13.0776 8.50123 12.8451 8.36633C12.6126 8.23143 12.3487 8.16022 12.0799 8.15989C10.8947 8.16019 9.75793 8.62999 8.91831 9.46649C8.07869 10.303 7.60465 11.438 7.59994 12.6232C7.59776 14.1689 7.90033 15.6999 8.49034 17.1286C9.08036 18.5573 9.94623 19.8557 11.0384 20.9495C12.1307 22.0433 13.4278 22.911 14.8556 23.5031C16.2835 24.0951 17.8141 24.3999 19.3598 24.3999H19.3766C20.5618 24.3952 21.6968 23.9211 22.5333 23.0815C23.3698 22.2419 23.8396 21.1051 23.8399 19.9199C23.8396 19.6511 23.7684 19.3872 23.6335 19.1547C23.4986 18.9223 23.3048 18.7295 23.0716 18.5959ZM19.375 23.2799H19.3599C17.9613 23.2799 16.5765 23.0042 15.2847 22.4685C13.9928 21.9329 12.8192 21.1478 11.831 20.1582C10.8428 19.1686 10.0593 17.9939 9.52552 16.7012C8.9917 15.4086 8.71795 14.0234 8.71994 12.6249C8.7238 11.7363 9.07952 10.8855 9.70924 10.2586C10.339 9.63167 11.1914 9.27978 12.0799 9.2799C12.1513 9.27998 12.2214 9.29889 12.2831 9.3347C12.3449 9.37051 12.3961 9.42197 12.4316 9.48388L14.0683 12.3484C14.1176 12.4348 14.143 12.5327 14.1419 12.6322C14.1409 12.7316 14.1134 12.829 14.0623 12.9143L12.7478 15.1051C12.7013 15.1825 12.6743 15.27 12.6689 15.3602C12.6636 15.4504 12.6802 15.5405 12.7172 15.6228C13.4481 17.2496 14.7503 18.5518 16.3771 19.2827C16.4594 19.3197 16.5496 19.3363 16.6397 19.331C16.7299 19.3256 16.8175 19.2986 16.8949 19.252L19.0855 17.9376C19.1709 17.8865 19.2683 17.859 19.3677 17.8579C19.4672 17.8568 19.5651 17.8822 19.6516 17.9315L22.516 19.5684C22.5779 19.6039 22.6294 19.6551 22.6652 19.7168C22.701 19.7785 22.7199 19.8486 22.7199 19.9199C22.7201 20.8084 22.3682 21.6609 21.7413 22.2906C21.1144 22.9203 20.2636 23.276 19.375 23.2799Z" fill="#F1F1F1" stroke="#F1F1F1" stroke-width="0.56"/>
</svg>
