<svg width="32" height="32" viewBox="0 0 32 32" fill="none" xmlns="http://www.w3.org/2000/svg">
<path d="M22.666 2.66669H9.33268C5.65078 2.66669 2.66602 5.65146 2.66602 9.33335V22.6667C2.66602 26.3486 5.65078 29.3334 9.33268 29.3334H22.666C26.3479 29.3334 29.3327 26.3486 29.3327 22.6667V9.33335C29.3327 5.65146 26.3479 2.66669 22.666 2.66669Z" stroke="#F1F1F1" stroke-width="1.99078" stroke-linecap="round" stroke-linejoin="round"/>
<path d="M21.3327 15.1599C21.4973 16.2696 21.3078 17.4029 20.7911 18.3986C20.2744 19.3943 19.4569 20.2018 18.4549 20.7062C17.4529 21.2105 16.3173 21.3861 15.2098 21.2078C14.1022 21.0296 13.0791 20.5067 12.2859 19.7135C11.4926 18.9202 10.9697 17.8971 10.7915 16.7895C10.6133 15.682 10.7888 14.5465 11.2932 13.5444C11.7975 12.5424 12.605 11.7249 13.6007 11.2083C14.5965 10.6916 15.7297 10.502 16.8394 10.6666C17.9713 10.8344 19.0192 11.3619 19.8283 12.171C20.6375 12.9801 21.1649 14.028 21.3327 15.1599Z" stroke="#F1F1F1" stroke-width="1.99078" stroke-linecap="round" stroke-linejoin="round"/>
<path d="M23.3333 8.66673H23.3466" stroke="#F1F1F1" stroke-width="1.99078" stroke-linecap="round" stroke-linejoin="round"/>
</svg>
